#!OML:ASF E:\Mandelcareful walks\Project 1\Capture day 1\Session 1\Subject1.ASF
:FULLY-SPECIFIED
:DEGREES
1447
root 29.5347 15.6366 -0.863875 546.256 -87.275 541.263
lowerback 29.5095 3.03457 1.68799
upperback 9.56204 3.3844 0.195616
thorax -5.35758 1.2563 -1.82609
lowerneck -22.6198 12.4075 6.73366
upperneck 25.6486 20.4793 -16.9743
head 15.5975 7.13213 -3.72759
rclavicle -1.63003e-014 -1.74931e-014
rhumerus -18.0624 1.32238 -82.1188
rradius 56.7408
rwrist -23.032
rhand -16.6446 -26.3608
rfingers 7.12502
rthumb 9.57828 -56.1231
lclavicle -1.63003e-014 -1.74931e-014
lhumerus -20.4904 -12.5526 83.9331
lradius 53.0062
lwrist 25.401
lhand -28.1509 -6.94927
lfingers 7.12502
lthumb -1.53168 23.025
rfemur -8.20811 -7.74235 9.54308
rtibia 42.3381
rfoot -27.1345 -7.55067
rtoes -20.2296
lfemur -47.1011 15.594 -19.0269
ltibia 56.667
lfoot -13.409 3.24899
ltoes 5.21183
1448
root 29.4651 15.6348 -0.816896 542.101 -87.3801 545.583
lowerback 29.4546 3.0643 1.81075
upperback 9.55294 3.4514 0.106043
thorax -5.32495 1.29311 -2.01481
lowerneck -22.4993 12.4135 6.94869
upperneck 25.4958 20.4071 -17.0414
head 15.5266 7.13551 -3.8051
rclavicle -4.77083e-015 4.37326e-015
rhumerus -18.2056 1.25249 -82.4194
rradius 57.1454
rwrist -22.594
rhand -13.5718 -26.7246
rfingers 7.12502
rthumb 12.5419 -56.3282
lclavicle -4.77083e-015 4.37326e-015
lhumerus -20.3894 -12.9283 83.9126
lradius 53.2536
lwrist 25.383
lhand -27.5874 -7.17738
lfingers 7.12502
lthumb -0.987445 22.8001
rfemur -7.74207 -7.59628 9.5936
rtibia 41.7344
rfoot -27.0626 -7.49663
rtoes -19.802
lfemur -47.2578 15.4363 -19.0146
ltibia 57.0742
lfoot -13.8453 3.34306
ltoes 5.65661
1449
root 29.3998 15.6374 -0.772113 534.848 -87.4554 553.003
lowerback 29.4032 3.07096 2.03945
upperback 9.50841 3.52738 0.0745084
thorax -5.32955 1.33466 -2.20397
lowerneck -22.2867 12.3984 7.08552
upperneck 25.3842 20.3344 -17.0994
head 15.4435 7.13389 -3.87274
rclavicle 1.19271e-014 1.39149e-014
rhumerus -18.2019 1.30856 -82.714
rradius 57.2627
rwrist -22.3376
rhand -17.8836 -28.821
rfingers 7.12502
rthumb 8.3827 -58.6347
lclavicle 1.19271e-014 1.39149e-014
lhumerus -20.3339 -13.4203 83.9834
lradius 53.4097
lwrist 25.3129
lhand -27.3624 -7.16031
lfingers 7.12502
lthumb -0.770125 22.818
rfemur -7.34388 -7.33685 9.83152
rtibia 41.1383
rfoot -27.0078 -7.50563
rtoes -19.0583
lfemur -47.3471 15.2019 -18.8068
ltibia 57.4342
lfoot -14.3866 3.40487
ltoes 6.39803
1450
root 29.3383 15.6364 -0.730115 528.342 -87.3844 559.686
lowerback 29.339 3.15838 2.18246
upperback 9.51575 3.67737 0.0880044
thorax -5.27454 1.40938 -2.31567
lowerneck -22.5217 12.332 6.89953
upperneck 25.5818 20.2476 -16.8316
head 15.5009 7.08636 -3.75212
rclavicle -1.23246e-014 1.15295e-014
rhumerus -17.7837 1.35819 -82.8695
rradius 57.1427
rwrist -21.9646
rhand -16.2576 -29.8984
rfingers 7.12502
rthumb 9.95164 -59.6432
lclavicle -1.23246e-014 1.15295e-014
lhumerus -20.2426 -14.0661 84.1912
lradius 53.7322
lwrist 24.8227
lhand -26.5176 -6.57927
lfingers 7.12502
lthumb 0.0458758 23.4005
rfemur -6.99801 -7.07432 10.0589
rtibia 40.5614
rfoot -26.8941 -7.53321
rtoes -18.8551
lfemur -47.4631 15.0735 -18.6358
ltibia 57.7598
lfoot -14.9108 3.5
ltoes 6.16629
1451
root 29.2742 15.6294 -0.691497 521.888 -87.3288 566.198
lowerback 29.3729 3.20274 2.35371
upperback 9.57608 3.77093 0.0850034
thorax -5.20435 1.45478 -2.44598
lowerneck -22.9704 12.3103 6.70481
upperneck 25.8788 20.2152 -16.4592
head 15.6409 7.05473 -3.56733
rclavicle -6.24184e-014 3.97569e-015
rhumerus -17.4615 1.62219 -82.9525
rradius 57.183
rwrist -21.8511
rhand -15.0013 -29.5673
rfingers 7.12502
rthumb 11.1635 -59.2503
lclavicle -6.24184e-014 3.97569e-015
lhumerus -20.0442 -14.7827 84.3221
lradius 54.0647
lwrist 24.1752
lhand -24.3879 -6.42385
lfingers 7.12502
lthumb 2.10278 23.5455
rfemur -6.50931 -6.95823 10.2667
rtibia 39.9965
rfoot -26.7348 -7.78195
rtoes -20.1449
lfemur -47.4398 14.9622 -18.4496
ltibia 58.0518
lfoot -15.4042 3.5558
ltoes 5.67184
1452
root 29.2104 15.6243 -0.651858 516.086 -87.3038 572.031
lowerback 29.4081 3.19107 2.4779
upperback 9.60028 3.78734 0.0958177
thorax -5.1839 1.46276 -2.51088
lowerneck -22.9987 12.3091 6.70386
upperneck 25.858 20.1965 -16.422
head 15.6273 7.05219 -3.55404
rclavicle -6.0033e-014 2.50469e-014
rhumerus -17.514 2.27607 -82.9246
rradius 57.3483
rwrist -22.1625
rhand -16.0797 -28.1029
rfingers 7.12502
rthumb 10.1233 -57.8393
lclavicle -6.0033e-014 2.50469e-014
lhumerus -19.7805 -15.1966 84.4316
lradius 53.8861
lwrist 23.363
lhand -23.9044 -8.34536
lfingers 7.12502
lthumb 2.56965 21.6189
rfemur -5.96759 -6.8634 10.4196
rtibia 39.3819
rfoot -26.574 -8.06214
rtoes -20.9757
lfemur -47.352 14.8147 -18.2748
ltibia 58.37
lfoot -15.9639 3.51198
ltoes 6.25372
1453
root 29.156 15.6231 -0.606342 516.137 -87.4789 572.21
lowerback 29.2866 3.1771 2.35153
upperback 9.55799 3.7391 0.0336302
thorax -5.18258 1.44341 -2.48789
lowerneck -22.8644 12.2337 6.71848
upperneck 25.7224 20.079 -16.5021
head 15.5326 7.01208 -3.61966
rclavicle -1.23246e-014 2.0276e-014
rhumerus -17.4054 2.63563 -82.904
rradius 57.3729
rwrist -21.8129
rhand -15.9361 -27.6125
rfingers 7.12502
rthumb 10.2618 -57.3422
lclavicle -1.23246e-014 2.0276e-014
lhumerus -19.6182 -15.3457 84.6401
lradius 53.9135
lwrist 22.1708
lhand -25.6391 -9.33879
lfingers 7.12502
lthumb 0.894278 20.6391
rfemur -5.60879 -6.98609 10.145
rtibia 38.7289
rfoot -26.4477 -8.03271
rtoes -20.5675
lfemur -47.5015 14.4787 -18.5278
ltibia 58.7134
lfoot -16.5519 3.53439
ltoes 7.36996
